<svg width="400" height="400" viewBox="0 0 400 400" fill="none" xmlns="http://www.w3.org/2000/svg">
<g clip-path="url(#clip0_85_29)">
<path d="M187.462 30.6947C191.997 20.4238 208.003 20.4238 212.538 30.6947C225.407 59.835 247.053 102.803 272.125 127.875C297.197 152.947 340.165 174.593 369.305 187.462C379.576 191.997 379.576 208.003 369.305 212.538C340.165 225.407 297.197 247.053 272.125 272.125C247.053 297.197 225.407 340.165 212.538 369.305C208.003 379.576 191.997 379.576 187.462 369.305C174.593 340.165 152.947 297.197 127.875 272.125C102.803 247.053 59.835 225.407 30.6947 212.538C20.4238 208.003 20.4238 191.997 30.6947 187.462C59.835 174.593 102.803 152.947 127.875 127.875C152.947 102.803 174.593 59.835 187.462 30.6947Z" fill="#D5DEA2"/>
</g>
<defs>
<clipPath id="clip0_85_29">
<rect width="400" height="400" fill="white"/>
</clipPath>
</defs>
</svg>
